<?xml version="1.0" ?><svg viewBox="0 0 512 512" xmlns="http://www.w3.org/2000/svg"><defs><style>.cls-1{fill:#f19ec3;}.cls-2{fill:#cbeee1;}</style></defs><title/><g data-name="Layer 6" id="Layer_6"><polygon class="cls-1" points="161 124 117 260 256 308 302 172 161 124"/><circle class="cls-2" cx="283" cy="361" r="25"/><path d="M96.93,309.57l146.7,48.58a14.36,14.36,0,0,0-.14,1.71A39.57,39.57,0,0,0,281.36,401H283a39.52,39.52,0,0,0,29.07-66.32,40.38,40.38,0,0,0-7.91-6.62l57-171.94,55.81-28a9.2,9.2,0,1,0-8.26-16.44l-59.16,29.75a9.16,9.16,0,0,0-4.64,5.32L286.68,322c-.68-.07-1.43-.14-2.12-.14h-1.64a39.35,39.35,0,0,0-33.57,18.7L102.73,292a9.25,9.25,0,0,0-11.67,5.87A9.35,9.35,0,0,0,96.93,309.57Zm164.91,51.1a21.07,21.07,0,0,1,21.08-20.26h.89a21.1,21.1,0,0,1,20.26,21.9,21.13,21.13,0,0,1-42.23-1.64Z"/><path d="M312.68,172.7A9.25,9.25,0,0,0,306.81,161L236,137.56h0L165.16,114a9.31,9.31,0,0,0-7,.55,9.16,9.16,0,0,0-4.64,5.32L107,260.31a9.31,9.31,0,0,0,.55,7A9.16,9.16,0,0,0,112.9,272l141.65,46.94a8.42,8.42,0,0,0,2.87.48,9.26,9.26,0,0,0,8.73-6.35Zm-20.4,2.93L251.54,298.52,127.36,257.38l40.73-123,53.36,17.67-11.26,34a9.25,9.25,0,0,0,5.87,11.67,8.42,8.42,0,0,0,2.87.48,9.26,9.26,0,0,0,8.73-6.35l11.26-34Z"/></g></svg>