<?xml version="1.0" ?><svg viewBox="0 0 512 512" xmlns="http://www.w3.org/2000/svg"><defs><style>.cls-1{fill:#f19ec3;}</style></defs><title/><g data-name="Layer 8" id="Layer_8"><path class="cls-1" d="M151,215,338,392s-13,19-34,19S153,271,153,271,141,256,151,215Z"/><path d="M410.31,272.31,282,144a35.78,35.78,0,0,0-25.39-10.55c-.78,0-1.57,0-2.35.07L161.5,139.6a20.25,20.25,0,0,0-18.83,18.83l-2.21,32.95a63.94,63.94,0,0,1-13.26-10.2c-9.91-9.91-16-22.25-17.33-34.8-1.21-11.91,2.21-22.53,9.63-30,15.76-15.76,44.78-12.27,64.82,7.7A8.57,8.57,0,0,0,196.44,112c-26.81-26.6-66.75-30-89.14-7.63C96.17,115.5,91,131,92.75,148.16c1.64,16.47,9.56,32.52,22.25,45.21A79.63,79.63,0,0,0,139.18,210l-2.71,41.29a35.86,35.86,0,0,0,10.48,27.81L275.31,407.45A42.6,42.6,0,0,0,305.69,420h0a42.9,42.9,0,0,0,30.38-12.55l74.38-74.38a42.87,42.87,0,0,0-.14-60.76Zm-12.05,48.56L323.8,395.33a25.68,25.68,0,0,1-18.26,7.56h0a25.68,25.68,0,0,1-18.26-7.56L158.93,267a18.79,18.79,0,0,1-5.49-14.55l2.5-37.37c1.43.21,2.85.43,4.28.57,2.14.21,4.28.36,6.35.36,14.62,0,27.67-5.13,37.37-14.83A8.57,8.57,0,0,0,191.8,189c-7.42,7.42-18,10.84-30,9.63-1.64-.14-3.21-.43-4.78-.71l2.57-38.22a3.14,3.14,0,0,1,2.92-2.92l92.78-6.13c.43,0,.86-.07,1.28-.07A19,19,0,0,1,270,156.07L398.25,284.36a25.82,25.82,0,0,1,0,36.51Z"/></g></svg>